<svg width="12" height="12" viewBox="0 0 12 12" fill="none" xmlns="http://www.w3.org/2000/svg">
<g clip-path="url(#clip0_2887_1026)">
<path d="M6 0C4.81331 0 3.65328 0.351894 2.66658 1.01118C1.67989 1.67047 0.910851 2.60754 0.456726 3.7039C0.00259972 4.80026 -0.11622 6.00666 0.115291 7.17054C0.346802 8.33443 0.918247 9.40353 1.75736 10.2426C2.59648 11.0818 3.66558 11.6532 4.82946 11.8847C5.99335 12.1162 7.19975 11.9974 8.2961 11.5433C9.39246 11.0892 10.3295 10.3201 10.9888 9.33342C11.6481 8.34673 12 7.18669 12 6C11.9983 4.40923 11.3656 2.88411 10.2407 1.75926C9.1159 0.634414 7.59077 0.00172054 6 0ZM7.611 3.5H4.389C4.81339 2.66214 5.35593 1.88958 6 1.206C6.64432 1.88939 7.18688 2.66198 7.611 3.5ZM8.011 4.5C8.16468 4.98534 8.2449 5.49093 8.249 6C8.2449 6.50907 8.16468 7.01466 8.011 7.5H3.988C3.83433 7.01466 3.75411 6.50907 3.75 6C3.75411 5.49093 3.83433 4.98534 3.988 4.5H8.011ZM4.7 1.178C4.12383 1.88289 3.64829 2.66435 3.287 3.5H1.6765C2.33943 2.35822 3.42583 1.52388 4.7 1.178ZM1 6C0.999957 5.49118 1.07769 4.98533 1.2305 4.5H2.95C2.82038 4.98957 2.75318 5.49357 2.75 6C2.75318 6.50643 2.82038 7.01043 2.95 7.5H1.2305C1.07769 7.01467 0.999957 6.50882 1 6ZM1.6765 8.5H3.287C3.64829 9.33565 4.12383 10.1171 4.7 10.822C3.42583 10.4761 2.33943 9.64178 1.6765 8.5ZM4.389 8.5H7.611C7.18662 9.33786 6.64408 10.1104 6 10.794C5.35569 10.1106 4.81312 9.33802 4.389 8.5ZM7.3025 10.822C7.87779 10.117 8.35249 9.33551 8.713 8.5H10.3235C9.66116 9.64127 8.57575 10.4755 7.3025 10.822ZM11 6C11 6.50882 10.9223 7.01467 10.7695 7.5H9.05C9.17962 7.01043 9.24682 6.50643 9.25 6C9.24682 5.49357 9.17962 4.98957 9.05 4.5H10.7685C10.9217 4.98528 10.9997 5.49113 11 6ZM8.713 3.5C8.35249 2.66449 7.87779 1.88304 7.3025 1.178C8.57575 1.52446 9.66116 2.35874 10.3235 3.5H8.713Z" fill="#B0B0B0"/>
</g>
<defs>
<clipPath id="clip0_2887_1026">
<rect width="12" height="12" fill="white"/>
</clipPath>
</defs>
</svg>
