<svg width="13" height="13" viewBox="0 0 13 13" fill="none" xmlns="http://www.w3.org/2000/svg">
<path d="M6.49984 0.541504C5.78154 0.541504 5.09267 0.826845 4.58476 1.33476C4.07685 1.84267 3.7915 2.53154 3.7915 3.24984V4.80984C3.48821 4.92448 3.21033 5.09746 2.97359 5.319C2.22609 6.06109 2.1665 7.65359 2.1665 8.12484C2.1665 8.59609 2.22609 10.1886 2.97359 10.9307C3.63442 11.5861 5.06442 11.9165 6.49984 11.9165C7.93525 11.9165 9.36525 11.5915 10.0261 10.9361C10.7736 10.1886 10.8332 8.59609 10.8332 8.12484C10.8332 7.65359 10.7736 6.06109 10.0261 5.319C9.78934 5.09746 9.51146 4.92448 9.20817 4.80984V3.24984C9.20817 2.53154 8.92283 1.84267 8.41492 1.33476C7.90701 0.826845 7.21813 0.541504 6.49984 0.541504ZM4.87484 3.24984C4.87484 2.81886 5.04604 2.40554 5.35079 2.10079C5.65554 1.79604 6.06886 1.62484 6.49984 1.62484C6.93081 1.62484 7.34414 1.79604 7.64889 2.10079C7.95363 2.40554 8.12484 2.81886 8.12484 3.24984V4.48484C7.05028 4.28982 5.94939 4.28982 4.87484 4.48484V3.24984Z" fill="#BCBCBC"/>
</svg>
