<svg width="1487" height="399" viewBox="0 0 1487 399" fill="none" xmlns="http://www.w3.org/2000/svg">
<g clip-path="url(#clip0_64_15)">
<path d="M323.92 47.38L180.09 0L36.27 47.38C14.63 54.51 0 74.72 0 97.51V190.46C0 257.78 36.65 319.76 95.63 352.2L180.1 398.66L264.57 352.2C323.55 319.76 360.2 257.78 360.2 190.46V97.51C360.2 74.72 345.57 54.5 323.93 47.37L323.92 47.38ZM180.1 289.1C122.91 289.1 76.55 242.74 76.55 185.55C76.55 128.36 122.91 82 180.1 82C237.29 82 283.65 128.36 283.65 185.55C283.65 242.74 237.29 289.1 180.1 289.1Z" fill="url(#paint0_linear_64_15)"/>
<path d="M188.7 221.24C189.98 209.17 200.07 199.43 212.18 198.54C223.1 197.73 232.69 203.79 237.1 212.84C238.2 215.11 241.5 214.91 242.51 212.6C246.81 202.72 248.83 191.62 247.89 179.95C245.17 146.18 217.15 119.16 183.31 117.6C143.22 115.75 110.33 148.63 112.15 188.72C113.67 222.31 140.34 250.28 173.83 253.29C182.74 254.09 191.32 253.17 199.3 250.82C201.76 250.1 202.33 246.86 200.18 245.46C192.47 240.43 187.63 231.36 188.71 221.24H188.7ZM159.49 179.62C152.5 179.62 146.84 173.95 146.84 166.97C146.84 159.99 152.51 154.32 159.49 154.32C166.47 154.32 172.14 159.99 172.14 166.97C172.14 173.95 166.47 179.62 159.49 179.62Z" fill="#3C3F44"/>
<path d="M1450.97 265.9C1447.11 269.33 1441.97 272.48 1435.83 274.12C1421.47 277.94 1405.74 272.26 1397.58 259.05L1486.47 235.42C1484.08 224.16 1481.58 199.87 1455.46 185.35C1441.59 177.64 1426.89 176.11 1410.9 180.36C1394.37 184.76 1382.06 194.12 1373.51 208.87C1364.95 223.62 1362.94 238.96 1367.26 255.21C1371.66 271.74 1381.02 284.05 1395.5 292.67C1410.18 300.95 1425.51 302.97 1442.04 298.58C1452.92 295.69 1462.14 289.85 1468.81 283.74L1450.97 265.9ZM1391.66 235.67C1392.19 221.31 1401.2 209.34 1417.46 205.02C1433.45 200.77 1449.26 207.87 1454.53 218.95L1391.66 235.67Z" fill="#8D9399"/>
<path d="M679.74 300.69V289.87C678.9 290.71 677.49 291.55 675.52 292.97C672.14 295.22 658.35 300.85 645.11 300.85C627.65 300.85 613.01 294.94 601.19 283.11C589.37 271.01 583.45 256.64 583.45 239.47C583.45 222.3 589.36 208.22 601.19 196.11C613.3 184 627.94 178.09 645.11 178.09C662.28 178.09 676.36 183.72 688.47 194.7C700.58 205.68 706.77 220.89 706.77 240.32V300.69H679.74ZM645.11 274.94C664.54 274.94 679.74 260.02 679.74 239.46C679.74 218.9 665.1 203.98 645.11 203.98C625.12 203.98 610.48 219.19 610.48 239.46C610.48 259.73 625.68 274.94 645.11 274.94Z" fill="#3C3F44"/>
<path d="M779.57 112.2L790.25 138.1H770.37C757.42 138.1 750.94 145.42 750.94 160.34V180.9H779.56L790.24 206.8H750.93V300.84H723.9V160.63C723.9 126 743.05 112.2 770.36 112.2H779.55H779.57Z" fill="#3C3F44"/>
<path d="M1224.45 300.69V289.87C1223.61 290.71 1222.2 291.55 1220.23 292.97C1216.85 295.22 1203.06 300.85 1189.82 300.85C1172.36 300.85 1157.72 294.94 1145.9 283.11C1134.08 271.01 1128.16 256.64 1128.16 239.47C1128.16 222.3 1134.07 208.22 1145.9 196.11C1158.01 184 1172.65 178.09 1189.82 178.09C1206.99 178.09 1221.07 183.72 1233.18 194.7C1245.29 205.68 1251.48 220.89 1251.48 240.32V300.69H1224.45ZM1189.82 274.94C1209.25 274.94 1224.45 260.02 1224.45 239.46C1224.45 218.9 1209.81 203.98 1189.82 203.98C1169.83 203.98 1155.19 219.19 1155.19 239.46C1155.19 259.73 1170.39 274.94 1189.82 274.94Z" fill="#8D9399"/>
<path d="M1351.22 300.85H1288.94C1275.39 300.85 1267.6 293.93 1267.6 283.55C1267.6 278.65 1270.19 272.31 1275.38 265.1L1318.92 204.55H1286.12L1270.77 178.02H1334.78C1348.04 178.02 1354.67 183.5 1354.67 194.45C1354.67 199.64 1352.94 204.54 1349.19 209.44L1302.48 274.31H1335.86L1351.21 300.84L1351.22 300.85Z" fill="#8D9399"/>
<path d="M1037.02 300.6C984.91 300.6 942.52 258.21 942.52 206.1C942.52 153.99 984.91 111.6 1037.02 111.6C1061.12 111.6 1084.07 120.67 1101.64 137.15L1082.67 157.39C1070.26 145.75 1054.05 139.34 1037.02 139.34C1000.21 139.34 970.26 169.29 970.26 206.1C970.26 242.91 1000.21 272.86 1037.02 272.86C1053.53 272.86 1069.03 266.96 1081.24 256.12V225.61H1060.45L1045.53 197.87H1108.97V267.6L1105.09 271.63C1087.1 290.3 1062.93 300.59 1037.01 300.59L1037.02 300.6Z" fill="#8D9399"/>
<path d="M887.52 265.72C883.67 269.14 878.54 272.29 872.41 273.92C858.08 277.73 842.38 272.06 834.24 258.88L922.94 235.3C920.55 224.06 918.06 199.83 891.99 185.33C878.15 177.63 863.48 176.11 847.52 180.35C831.02 184.74 818.74 194.08 810.21 208.81C801.67 223.53 799.66 238.83 803.97 255.06C808.36 271.55 817.7 283.84 832.15 292.45C846.8 300.72 862.1 302.73 878.6 298.34C889.45 295.45 898.66 289.63 905.32 283.53L887.51 265.72H887.52ZM828.33 235.55C828.86 221.21 837.85 209.28 854.08 204.96C870.04 200.72 885.82 207.81 891.07 218.87L828.33 235.55Z" fill="#3C3F44"/>
<path d="M507.17 300.85C504.33 300.85 501.45 300.68 498.55 300.34C480.5 298.22 464.64 289.88 454.28 283.8L468.7 259.25C481.65 266.86 492.19 270.93 501.87 272.07C512.76 273.35 522.99 270.58 529.27 264.66C534.03 260.18 536.81 253.62 536.71 247.09C536.49 232.37 528.25 227.83 506.5 219.49C489.66 213.04 468.71 205 459.85 183.25C455.09 171.57 455.17 157.98 460.05 145.99C464.65 134.69 473.26 125.14 484.31 119.1C495.36 113.06 508.59 110.6 522.54 111.98C536.89 113.41 551.5 118.44 563.68 126.13L548.47 150.2C540.08 144.9 529.6 141.29 519.72 140.31C511.59 139.51 503.88 140.84 497.97 144.07C492.73 146.93 488.53 151.54 486.42 156.72C484.34 161.82 484.27 167.72 486.22 172.51C490.14 182.14 500.35 186.64 516.7 192.9C536.94 200.66 564.66 211.29 565.19 246.66C565.41 261.05 559.28 275.53 548.79 285.4C538.14 295.42 523.31 300.86 507.17 300.86V300.85Z" fill="#3C3F44"/>
</g>
<defs>
<linearGradient id="paint0_linear_64_15" x1="-2.44" y1="199.33" x2="361.49" y2="199.33" gradientUnits="userSpaceOnUse">
<stop stop-color="#3E8DFF"/>
<stop offset="0.6" stop-color="#30B9FE"/>
<stop offset="1" stop-color="#29D3FE"/>
</linearGradient>
<clipPath id="clip0_64_15">
<rect width="1486.47" height="398.66" fill="white"/>
</clipPath>
</defs>
</svg>
