<svg width="16" height="16" viewBox="0 0 16 16" fill="none" xmlns="http://www.w3.org/2000/svg">
<g clip-path="url(#clip0_2467_5057)">
<path d="M8 0C3.58667 0 0 3.58667 0 8C0 12.4133 3.58667 16 8 16C12.4133 16 16 12.4133 16 8C16 3.58667 12.4133 0 8 0ZM8 14.6667C4.32667 14.6667 1.33333 11.6733 1.33333 8C1.33333 6.4 1.9 4.93333 2.84 3.78667L12.2133 13.16C11.0667 14.1 9.59333 14.6667 8 14.6667ZM13.16 12.2133L12.5867 11.64C12.6333 11.5467 12.6733 11.4467 12.6733 11.3333C12.6733 10.46 12.1067 9.72667 11.3333 9.45333C11.3333 9.41333 11.34 9.37333 11.34 9.33333C11.34 9.13333 11.3267 8.90667 11.2933 8.66667H12.0067C12.3733 8.66667 12.6733 8.36667 12.6733 8C12.6733 7.63333 12.3733 7.33333 12.0067 7.33333H11.0667C11.0133 7.1 10.96 6.86667 10.9067 6.64C11.9 6.52667 12.6733 5.68667 12.6733 4.66667C12.6733 4.3 12.3733 4 12.0067 4C11.64 4 11.34 4.3 11.34 4.66667C11.34 5.03333 11.04 5.33333 10.6733 5.33333H10.54C10.4667 5.09333 10.4067 4.92 10.3867 4.87333C9.98 3.94 9.05333 3.33333 8.04 3.33333C7.02667 3.33333 6.16 3.9 5.73333 4.78667L3.78667 2.84C4.93333 1.9 6.40667 1.33333 8 1.33333C11.6733 1.33333 14.6667 4.32667 14.6667 8C14.6667 9.6 14.1 11.0667 13.16 12.2133ZM4.68667 9.45333C4.68667 9.37333 4.66667 9.29333 4.66667 9.21333V8.66667H4C3.63333 8.66667 3.33333 8.36667 3.33333 8C3.33333 7.63333 3.63333 7.33333 4 7.33333C4.56 7.33333 4.75333 7.54 4.97333 7.8L8.85333 11.68C9.16 11.9867 9.01333 12.52 8.59333 12.6067C8.42 12.64 8.22 12.6667 8 12.6667C7.74667 12.6667 7.48667 12.64 7.22667 12.58C6.24667 12.36 5.45333 11.66 5.02 10.7533C4.81333 10.8667 4.66667 11.08 4.66667 11.3333C4.66667 11.7 4.36667 12 4 12C3.63333 12 3.33333 11.7 3.33333 11.3333C3.33333 10.46 3.9 9.72 4.68667 9.45333Z" fill="#454545"/>
</g>
<defs>
<clipPath id="clip0_2467_5057">
<rect width="16" height="16" fill="white"/>
</clipPath>
</defs>
</svg>
