<svg width="12" height="12" viewBox="0 0 12 12" fill="none" xmlns="http://www.w3.org/2000/svg">
<g clip-path="url(#clip0_2467_5087)">
<path d="M11.6334 4.7037C11.1822 3.96483 10.613 3.30484 9.94854 2.74993L11.348 1.35046C11.5398 1.1519 11.5343 0.835492 11.3357 0.643727C11.142 0.456648 10.8349 0.456648 10.6413 0.643727L9.11932 2.16765C8.17587 1.60728 7.09728 1.3152 5.99999 1.32298C2.90563 1.32298 1.14228 3.4412 0.366579 4.70373C-0.122193 5.49429 -0.122193 6.4932 0.366579 7.28378C0.817794 8.02265 1.38695 8.68264 2.05146 9.23755L0.651989 10.637C0.453429 10.8288 0.447924 11.1452 0.639688 11.3438C0.831453 11.5423 1.14788 11.5478 1.34642 11.3561C1.35059 11.352 1.35469 11.3479 1.35872 11.3438L2.88414 9.81833C3.82643 10.3786 4.90373 10.6712 5.99999 10.6645C9.09435 10.6645 10.8577 8.54629 11.6334 7.28375C12.1222 6.4932 12.1222 5.49429 11.6334 4.7037ZM3.00112 5.99374C2.99829 4.34025 4.33638 2.99755 5.98987 2.99471C6.61549 2.99364 7.22574 3.18859 7.73487 3.55216L7.00914 4.27789C6.70447 4.09416 6.35578 3.99623 6.00001 3.99449C4.89586 3.99449 4.00076 4.88959 4.00076 5.99374C4.00249 6.34951 4.10043 6.6982 4.28416 7.00287L3.55843 7.7286C3.19603 7.2227 3.00115 6.61603 3.00112 5.99374ZM6.00001 8.99263C5.37772 8.99261 4.77105 8.79772 4.26516 8.43533L4.99089 7.7096C5.29555 7.89333 5.64425 7.99126 6.00001 7.99299C7.10416 7.99299 7.99926 7.09789 7.99926 5.99374C7.99753 5.63797 7.8996 5.28928 7.71587 4.98462L8.4416 4.25889C9.40248 5.6045 9.09062 7.4743 7.74501 8.43519C7.23588 8.79875 6.62563 8.99371 6.00001 8.99263Z" fill="#888888"/>
</g>
<defs>
<clipPath id="clip0_2467_5087">
<rect width="12" height="12" fill="white"/>
</clipPath>
</defs>
</svg>
