<svg width="20" height="20" viewBox="0 0 20 20" fill="none" xmlns="http://www.w3.org/2000/svg">
<path d="M10.0002 8C10.7958 8 11.5589 7.68393 12.1215 7.12132C12.6841 6.55871 13.0002 5.79565 13.0002 5C13.0002 4.20435 12.6841 3.44129 12.1215 2.87868C11.5589 2.31607 10.7958 2 10.0002 2C9.20455 2 8.44149 2.31607 7.87888 2.87868C7.31627 3.44129 7.0002 4.20435 7.0002 5C7.0002 5.79565 7.31627 6.55871 7.87888 7.12132C8.44149 7.68393 9.20455 8 10.0002 8ZM3.4652 14.493C3.37236 14.7411 3.36212 15.0126 3.436 15.267C3.50987 15.5214 3.66391 15.7452 3.8752 15.905C5.62654 17.266 7.78218 18.0034 10.0002 18C12.3102 18 14.4382 17.216 16.1312 15.9C16.5612 15.567 16.7352 14.997 16.5392 14.49C16.0314 13.168 15.1348 12.0311 13.9675 11.2292C12.8003 10.4274 11.4173 9.99829 10.0012 9.99861C8.58503 9.99894 7.20227 10.4287 6.03539 11.231C4.86851 12.0334 3.97236 13.1708 3.4652 14.493Z" fill="#11B3C9"/>
</svg>
