<svg width="16" height="16" viewBox="0 0 16 16" fill="none" xmlns="http://www.w3.org/2000/svg">
<g clip-path="url(#clip0_2467_5068)">
<path d="M15.353 9.8607C15.2861 9.79395 15.2016 9.74754 15.1094 9.72683C15.0172 9.70612 14.921 9.71197 14.832 9.7437C13.6356 10.1702 12.3428 10.2486 11.1038 9.96956C9.86471 9.69056 8.73024 9.06571 7.83217 8.16759C6.93411 7.26948 6.30932 6.13497 6.0304 4.89588C5.75148 3.6568 5.82987 2.364 6.25647 1.1677C6.28817 1.07866 6.29399 0.982463 6.27324 0.890255C6.2525 0.798047 6.20604 0.713607 6.13927 0.646724C6.07249 0.579841 5.98812 0.533254 5.89595 0.512365C5.80377 0.491476 5.70756 0.49714 5.61847 0.5287C4.53992 0.909569 3.56114 1.52876 2.75497 2.3402C1.30978 3.78648 0.498149 5.74752 0.498535 7.7921C0.498922 9.83668 1.3113 11.7974 2.75703 13.2431C4.20277 14.6889 6.1635 15.5013 8.20808 15.5016C10.2527 15.502 12.2137 14.6904 13.66 13.2452C14.4715 12.4389 15.0907 11.4599 15.4715 10.3812C15.5029 10.2921 15.5085 10.1959 15.4875 10.1038C15.4665 10.0117 15.4199 9.9274 15.353 9.8607Z" fill="#6D6D6D"/>
</g>
<defs>
<clipPath id="clip0_2467_5068">
<rect width="16" height="16" fill="white"/>
</clipPath>
</defs>
</svg>
