<svg width="303" height="335" viewBox="0 0 303 335" fill="none" xmlns="http://www.w3.org/2000/svg">
<path d="M271.94 39.78L151.19 0L30.45 39.78C12.28 45.77 0 62.74 0 81.87V159.9C0 216.42 30.77 268.45 80.29 295.69L151.2 334.69L222.11 295.69C271.63 268.45 302.4 216.42 302.4 159.9V81.87C302.4 62.74 290.12 45.76 271.95 39.78H271.94ZM151.19 245.8C101.84 245.8 61.83 205.79 61.83 156.44C61.83 107.09 101.84 67.08 151.19 67.08C200.54 67.08 240.55 107.09 240.55 156.44C240.55 205.79 200.54 245.8 151.19 245.8Z" fill="#00B7E8"/>
<path d="M151.19 80.9297C109.49 80.9297 75.69 114.73 75.69 156.43C75.69 198.13 109.49 231.93 151.19 231.93C192.89 231.93 226.69 198.13 226.69 156.43C226.69 114.73 192.89 80.9297 151.19 80.9297ZM199.67 149.26C199.67 149.26 198.78 150.23 198.32 150.56C196.54 152.25 194.71 153.85 192.8 155.31C190.13 157.35 189.34 161.02 191.01 163.94L195.57 171.89C197.39 175.07 196.2 179.02 192.92 180.66C189.64 182.3 185.47 181.04 183.64 177.86L178.85 169.5C177.29 166.78 174.06 165.56 171.07 166.48C168.76 167.18 166.42 167.76 164.06 168.22C160.89 168.83 158.57 171.54 158.57 174.76V182.38C158.57 186.06 155.59 189.04 151.91 189.04C148.23 189.04 145.25 186.06 145.25 182.38V175.14C145.25 171.85 142.84 169.1 139.59 168.57C136.74 168.11 133.92 167.46 131.14 166.64C128.1 165.74 124.85 167.05 123.35 169.84L118.22 179.39C116.43 182.73 112.18 183.92 108.9 181.93C105.82 180.06 104.97 175.94 106.67 172.76L111.27 164.2C112.85 161.26 111.97 157.66 109.3 155.66C106.73 153.73 101.87 149.21 101.87 149.21C100.4 147.74 99.67 145.64 100.09 143.32C100.56 140.71 102.66 138.56 105.27 138.04C107.64 137.57 109.81 138.33 111.31 139.82L111.34 139.85C132.65 161.16 166.9 161.63 188.79 141.28C190.05 140.11 191.51 139.14 193.17 138.68C193.64 138.55 194.1 138.46 194.49 138.46C198.16 138.46 201.14 141.44 201.14 145.11C201.14 146.68 200.57 148.11 199.66 149.24L199.67 149.26Z" fill="#001F54"/>
</svg>
