<svg width="368" height="432" viewBox="0 0 368 432" fill="none" xmlns="http://www.w3.org/2000/svg">
<g clip-path="url(#clip0_86_21)">
<path d="M305.14 39.78L184.39 0L63.65 39.78C45.48 45.77 33.2 62.74 33.2 81.87V159.9C33.2 216.42 63.97 268.45 113.49 295.69L184.4 334.69L255.31 295.69C304.83 268.45 335.6 216.42 335.6 159.9V81.87C335.6 62.74 323.32 45.76 305.15 39.78H305.14ZM184.39 245.8C135.04 245.8 95.03 205.79 95.03 156.44C95.03 107.09 135.04 67.08 184.39 67.08C233.74 67.08 273.75 107.09 273.75 156.44C273.75 205.79 233.74 245.8 184.39 245.8Z" fill="#00B7E8"/>
<path d="M184.39 80.9297C142.69 80.9297 108.89 114.73 108.89 156.43C108.89 198.13 142.69 231.93 184.39 231.93C226.09 231.93 259.89 198.13 259.89 156.43C259.89 114.73 226.09 80.9297 184.39 80.9297ZM232.87 149.26C232.87 149.26 231.98 150.23 231.52 150.56C229.74 152.25 227.91 153.85 226 155.31C223.33 157.35 222.54 161.02 224.21 163.94L228.77 171.89C230.59 175.07 229.4 179.02 226.12 180.66C222.84 182.3 218.67 181.04 216.84 177.86L212.05 169.5C210.49 166.78 207.26 165.56 204.27 166.48C201.96 167.18 199.62 167.76 197.26 168.22C194.09 168.83 191.77 171.54 191.77 174.76V182.38C191.77 186.06 188.79 189.04 185.11 189.04C181.43 189.04 178.45 186.06 178.45 182.38V175.14C178.45 171.85 176.04 169.1 172.79 168.57C169.94 168.11 167.12 167.46 164.34 166.64C161.3 165.74 158.05 167.05 156.55 169.84L151.42 179.39C149.63 182.73 145.38 183.92 142.1 181.93C139.02 180.06 138.17 175.94 139.87 172.76L144.47 164.2C146.05 161.26 145.17 157.66 142.5 155.66C139.93 153.73 135.07 149.21 135.07 149.21C133.6 147.74 132.87 145.64 133.29 143.32C133.76 140.71 135.86 138.56 138.47 138.04C140.84 137.57 143.01 138.33 144.51 139.82L144.54 139.85C165.85 161.16 200.1 161.63 221.99 141.28C223.25 140.11 224.71 139.14 226.37 138.68C226.84 138.55 227.3 138.46 227.69 138.46C231.36 138.46 234.34 141.44 234.34 145.11C234.34 146.68 233.77 148.11 232.86 149.24L232.87 149.26Z" fill="#001F54"/>
<path d="M354.93 418.461C353.56 419.681 351.74 420.801 349.55 421.381C344.45 422.741 338.87 420.721 335.97 416.031L367.53 407.641C366.68 403.641 365.79 395.021 356.52 389.861C351.6 387.121 346.38 386.581 340.7 388.091C334.83 389.651 330.46 392.981 327.42 398.221C324.38 403.461 323.67 408.901 325.2 414.681C326.76 420.551 330.09 424.921 335.23 427.981C340.44 430.921 345.89 431.641 351.76 430.081C355.62 429.051 358.9 426.981 361.27 424.811L354.93 418.471V418.461ZM333.87 407.731C334.06 402.631 337.26 398.381 343.03 396.851C348.71 395.341 354.32 397.861 356.19 401.801L333.87 407.741V407.731Z" fill="#B0BAC1"/>
<path d="M81.09 431.01V427.11C80.79 427.41 80.29 427.71 79.59 428.21C78.39 429.01 73.49 431.01 68.79 431.01C62.59 431.01 57.39 428.91 53.19 424.71C48.99 420.41 46.89 415.31 46.89 409.21C46.89 403.11 48.99 398.11 53.19 393.81C57.49 389.51 62.69 387.41 68.79 387.41C74.89 387.41 79.89 389.41 84.19 393.31C88.49 397.21 90.69 402.61 90.69 409.51V431H81.09V431.01ZM68.79 421.81C75.69 421.81 81.09 416.51 81.09 409.21C81.09 401.91 75.89 396.61 68.79 396.61C61.69 396.61 56.49 402.01 56.49 409.21C56.49 416.41 61.89 421.81 68.79 421.81Z" fill="#001F54"/>
<path d="M116.53 363.521L120.32 372.721H113.26C108.66 372.721 106.36 375.321 106.36 380.621V387.921H116.52L120.31 397.121H106.35V431.011H96.75V380.721C96.75 368.421 103.55 363.521 113.25 363.521H116.51H116.53Z" fill="#001F54"/>
<path d="M274.5 430.871V426.971C274.2 427.271 273.7 427.571 273 428.071C271.8 428.871 266.9 430.871 262.2 430.871C256 430.871 250.8 428.771 246.6 424.571C242.4 420.271 240.3 415.171 240.3 409.071C240.3 402.971 242.4 397.971 246.6 393.671C250.9 389.371 256.1 387.271 262.2 387.271C268.3 387.271 273.3 389.271 277.6 393.171C281.9 397.071 284.1 402.471 284.1 409.371V430.871H274.5ZM262.2 421.671C269.1 421.671 274.5 416.371 274.5 409.071C274.5 401.771 269.3 396.471 262.2 396.471C255.1 396.471 249.9 401.871 249.9 409.071C249.9 416.271 255.3 421.671 262.2 421.671Z" fill="#B0BAC1"/>
<path d="M319.51 430.871H297.4C292.59 430.871 289.82 428.411 289.82 424.731C289.82 422.991 290.74 420.741 292.58 418.181L308.04 396.681H296.39L290.94 387.261H313.67C318.38 387.261 320.73 389.201 320.73 393.091C320.73 394.931 320.12 396.671 318.78 398.411L302.2 421.441H314.05L319.5 430.861L319.51 430.871Z" fill="#B0BAC1"/>
<path d="M208.04 430.871C189.13 430.871 173.74 415.481 173.74 396.571C173.74 377.661 189.13 362.271 208.04 362.271C216.79 362.271 225.12 365.561 231.5 371.541L224.61 378.891C220.1 374.671 214.22 372.341 208.04 372.341C194.68 372.341 183.81 383.211 183.81 396.571C183.81 409.931 194.68 420.801 208.04 420.801C214.03 420.801 219.66 418.661 224.09 414.731V403.661H216.55L211.14 393.591H234.17V418.901L232.76 420.361C226.23 427.141 217.46 430.871 208.05 430.871H208.04Z" fill="#B0BAC1"/>
<path d="M154.92 418.561C153.54 419.781 151.71 420.911 149.52 421.491C144.4 422.851 138.79 420.831 135.88 416.121L167.57 407.691C166.72 403.671 165.83 395.021 156.51 389.841C151.57 387.091 146.32 386.551 140.62 388.061C134.73 389.631 130.34 392.971 127.29 398.231C124.24 403.491 123.52 408.961 125.06 414.751C126.63 420.641 129.97 425.031 135.13 428.111C140.36 431.061 145.83 431.781 151.72 430.221C155.6 429.191 158.89 427.111 161.27 424.931L154.91 418.571L154.92 418.561ZM133.77 407.781C133.96 402.661 137.17 398.391 142.97 396.851C148.67 395.331 154.31 397.871 156.19 401.821L133.78 407.781H133.77Z" fill="#001F54"/>
<path d="M19.76 431.02C18.7 431.02 17.62 430.96 16.54 430.83C9.8 430.04 3.87 426.92 0 424.65L5.39 415.48C10.23 418.32 14.17 419.84 17.79 420.27C21.86 420.75 25.68 419.71 28.03 417.5C29.81 415.83 30.85 413.37 30.81 410.93C30.73 405.43 27.65 403.73 19.52 400.62C13.23 398.21 5.4 395.21 2.09 387.08C0.31 382.71 0.34 377.64 2.16 373.16C3.88 368.94 7.1 365.37 11.22 363.11C15.35 360.85 20.29 359.94 25.51 360.45C30.87 360.98 36.33 362.86 40.88 365.74L35.2 374.73C32.07 372.75 28.15 371.4 24.46 371.03C21.42 370.73 18.54 371.23 16.33 372.44C14.37 373.51 12.8 375.23 12.01 377.16C11.23 379.07 11.21 381.27 11.94 383.06C13.41 386.66 17.22 388.34 23.33 390.68C30.89 393.58 41.25 397.55 41.45 410.77C41.53 416.15 39.24 421.56 35.32 425.24C31.34 428.98 25.8 431.02 19.77 431.02H19.76Z" fill="#001F54"/>
</g>
<defs>
<clipPath id="clip0_86_21">
<rect width="367.54" height="431.02" fill="white"/>
</clipPath>
</defs>
</svg>
