<svg width="361" height="399" viewBox="0 0 361 399" fill="none" xmlns="http://www.w3.org/2000/svg">
<path d="M323.92 47.38L180.09 0L36.27 47.38C14.63 54.51 0 74.72 0 97.51V190.46C0 257.78 36.65 319.76 95.63 352.2L180.1 398.66L264.57 352.2C323.55 319.76 360.2 257.78 360.2 190.46V97.51C360.2 74.72 345.57 54.5 323.93 47.37L323.92 47.38ZM180.1 289.1C122.91 289.1 76.55 242.74 76.55 185.55C76.55 128.36 122.91 82 180.1 82C237.29 82 283.65 128.36 283.65 185.55C283.65 242.74 237.29 289.1 180.1 289.1Z" fill="url(#paint0_linear_64_28)"/>
<path d="M188.7 221.24C189.98 209.17 200.07 199.43 212.18 198.54C223.1 197.73 232.69 203.79 237.1 212.84C238.2 215.11 241.5 214.91 242.51 212.6C246.81 202.72 248.83 191.62 247.89 179.95C245.17 146.18 217.15 119.16 183.31 117.6C143.22 115.75 110.33 148.63 112.15 188.72C113.67 222.31 140.34 250.28 173.83 253.29C182.74 254.09 191.32 253.17 199.3 250.82C201.76 250.1 202.33 246.86 200.18 245.46C192.47 240.43 187.63 231.36 188.71 221.24H188.7ZM159.49 179.62C152.5 179.62 146.84 173.95 146.84 166.97C146.84 159.99 152.51 154.32 159.49 154.32C166.47 154.32 172.14 159.99 172.14 166.97C172.14 173.95 166.47 179.62 159.49 179.62Z" fill="#3C3F44"/>
<defs>
<linearGradient id="paint0_linear_64_28" x1="-2.44" y1="199.33" x2="361.49" y2="199.33" gradientUnits="userSpaceOnUse">
<stop stop-color="#3E8DFF"/>
<stop offset="0.6" stop-color="#30B9FE"/>
<stop offset="1" stop-color="#29D3FE"/>
</linearGradient>
</defs>
</svg>
